<?xml version="1.0" encoding="us-ascii" standalone="no"?><svg xmlns="http://www.w3.org/2000/svg" xmlns:xlink="http://www.w3.org/1999/xlink" contentStyleType="text/css" height="363px" preserveAspectRatio="none" style="width:1399px;height:363px;background:#FFFFFF;" version="1.1" viewBox="0 0 1399 363" width="1399px" zoomAndPan="magnify"><defs/><g><!--cluster MOK--><g id="cluster_MOK"><rect fill="none" height="350" rx="2.5" ry="2.5" style="stroke:#181818;stroke-width:1.0;" width="1282" x="111" y="7"/><text fill="#000000" font-family="sans-serif" font-size="14" font-weight="bold" lengthAdjust="spacing" textLength="34" x="735" y="24.1074">MOK</text></g><g id="elem_MOK4"><ellipse cx="1161.1459" cy="288.1292" fill="#F1F1F1" rx="216.1459" ry="45.6292" style="stroke:#181818;stroke-width:0.5;"/><text fill="#000000" font-family="sans-serif" font-size="14" lengthAdjust="spacing" textLength="404" x="959.1459" y="291.926">4 - Do&#322;&#261;czenie/Od&#322;&#261;czenie poziomu dost&#281;pu do konta w&#322;a&#347;ciciela</text></g><g id="elem_MOK5"><ellipse cx="696.7724" cy="321.1545" fill="#F1F1F1" rx="78.7724" ry="18.1545" style="stroke:#181818;stroke-width:0.5;"/><text fill="#000000" font-family="sans-serif" font-size="14" lengthAdjust="spacing" textLength="105" x="641.2724" y="325.9582">6 - Zmiana has&#322;a</text></g><g id="elem_MOK7"><ellipse cx="697.2493" cy="249.2499" fill="#F1F1F1" rx="81.7493" ry="18.7499" style="stroke:#181818;stroke-width:0.5;"/><text fill="#000000" font-family="sans-serif" font-size="14" lengthAdjust="spacing" textLength="113" x="637.7493" y="254.0536">7 - Edycja danych</text></g><g id="elem_MOK8"><ellipse cx="1160.9212" cy="179.1842" fill="#F1F1F1" rx="128.9212" ry="28.1842" style="stroke:#181818;stroke-width:0.5;"/><text fill="#000000" font-family="sans-serif" font-size="14" lengthAdjust="spacing" textLength="222" x="1049.9212" y="182.9811">8 - Edycja danych konta w&#322;a&#347;ciciela</text></g><g id="elem_MOK9"><ellipse cx="1161.1749" cy="80.135" fill="#F1F1F1" rx="168.6749" ry="36.135" style="stroke:#181818;stroke-width:0.5;"/><text fill="#000000" font-family="sans-serif" font-size="14" lengthAdjust="spacing" textLength="306" x="1008.1749" y="83.9318">9 - Zablokowanie/odblokowanie konta w&#322;a&#347;ciciela</text></g><g id="elem_MOK12"><ellipse cx="287.1549" cy="63.131" fill="#F1F1F1" rx="83.6549" ry="19.131" style="stroke:#181818;stroke-width:0.5;"/><text fill="#000000" font-family="sans-serif" font-size="14" lengthAdjust="spacing" textLength="118" x="225.1549" y="67.9347">11 - Zmiana j&#281;zyka</text></g><g id="elem_MOK14"><ellipse cx="286.8723" cy="136.1745" fill="#F1F1F1" rx="81.3723" ry="18.6745" style="stroke:#181818;stroke-width:0.5;"/><text fill="#000000" font-family="sans-serif" font-size="14" lengthAdjust="spacing" textLength="112" x="227.8723" y="140.9782">13 - Wylogowanie</text></g><g id="elem_MOK15"><ellipse cx="286.7713" cy="212.8543" fill="#F1F1F1" rx="104.7713" ry="23.3543" style="stroke:#181818;stroke-width:0.5;"/><text fill="#000000" font-family="sans-serif" font-size="14" lengthAdjust="spacing" textLength="169" x="202.2713" y="216.6511">15 - Wy&#347;wietlenie listy kont</text></g><g id="elem_MOK16"><ellipse cx="287.0578" cy="305.9116" fill="#F1F1F1" rx="160.0578" ry="34.4116" style="stroke:#181818;stroke-width:0.5;"/><text fill="#000000" font-family="sans-serif" font-size="14" lengthAdjust="spacing" textLength="288" x="143.0578" y="309.7084">14 - Wy&#347;wietlenie informacji o w&#322;asnym koncie</text></g><g id="elem_MOK17"><ellipse cx="697.1131" cy="166.0226" fill="#F1F1F1" rx="133.1131" ry="29.0226" style="stroke:#181818;stroke-width:0.5;"/><text fill="#000000" font-family="sans-serif" font-size="14" lengthAdjust="spacing" textLength="231" x="581.6131" y="169.8195">16 - Wy&#347;wietlenie informacji o koncie</text></g><!--entity z--><g id="elem_z"><ellipse cx="35" cy="153" fill="#F1F1F1" rx="8" ry="8" style="stroke:#181818;stroke-width:0.5;"/><path d="M35,161 L35,188 M22,169 L48,169 M35,188 L22,203 M35,188 L48,203 " fill="none" style="stroke:#181818;stroke-width:0.5;"/><text fill="#000000" font-family="sans-serif" font-size="14" lengthAdjust="spacing" textLength="58" x="6" y="219.6074">Zarz&#261;dca</text></g><!--link z to MOK12--><g id="link_z_MOK12"><path d="M59.13,144.07 C70.39,128.02 85.33,110.8 103,100 C133.56,81.32 171.84,71.88 205.47,67.17 " fill="none" id="z-MOK12" style="stroke:#181818;stroke-width:1.0;"/></g><!--link z to MOK14--><g id="link_z_MOK14"><path d="M64.13,174.98 C73.56,172.17 84.18,169.22 94,167 C134.01,157.94 179.29,150.5 215.83,145.18 " fill="none" id="z-MOK14" style="stroke:#181818;stroke-width:1.0;"/></g><!--link z to MOK15--><g id="link_z_MOK15"><path d="M64.19,187.27 C95.48,190.9 147.61,196.95 193.48,202.27 " fill="none" id="z-MOK15" style="stroke:#181818;stroke-width:1.0;"/></g><!--link z to MOK16--><g id="link_z_MOK16"><path d="M64.26,220.63 C75.21,232.74 88.59,245.32 103,254 C122.95,266.01 145.79,275.35 168.41,282.58 " fill="none" id="z-MOK16" style="stroke:#181818;stroke-width:1.0;"/></g><!--link MOK15 to MOK17--><g id="link_MOK15_MOK17"><path d="M380.58,202.33 C437.75,195.75 511.76,187.22 573.72,180.09 " fill="none" id="MOK15-to-MOK17" style="stroke:#181818;stroke-width:1.0;stroke-dasharray:7.0,7.0;"/><polygon fill="#181818" points="578.92,179.49,569.5221,176.5439,573.9527,180.061,570.4356,184.4916,578.92,179.49" style="stroke:#181818;stroke-width:1.0;"/><text fill="#000000" font-family="sans-serif" font-size="13" lengthAdjust="spacing" textLength="55" x="478" y="182.0283">&#171;include&#187;</text></g><!--reverse link MOK17 to MOK9--><g id="link_MOK17_MOK9"><path d="M804.11,146.25 C872.37,133.54 961.43,116.96 1033.38,103.57 " fill="none" id="MOK17-backto-MOK9" style="stroke:#181818;stroke-width:1.0;stroke-dasharray:7.0,7.0;"/><polygon fill="#181818" points="798.82,147.23,808.3998,149.5163,803.7357,146.3155,806.9365,141.6513,798.82,147.23" style="stroke:#181818;stroke-width:1.0;"/><text fill="#000000" font-family="sans-serif" font-size="13" lengthAdjust="spacing" textLength="53" x="861" y="125.0283">&#171;extend&#187;</text></g><!--reverse link MOK17 to MOK4--><g id="link_MOK17_MOK4"><path d="M787.69,189.68 C855.19,207.51 948.83,232.24 1025.31,252.43 " fill="none" id="MOK17-backto-MOK4" style="stroke:#181818;stroke-width:1.0;stroke-dasharray:7.0,7.0;"/><polygon fill="#181818" points="782.47,188.31,790.1548,194.4699,787.3052,189.5832,792.1919,186.7336,782.47,188.31" style="stroke:#181818;stroke-width:1.0;"/><text fill="#000000" font-family="sans-serif" font-size="13" lengthAdjust="spacing" textLength="53" x="861" y="205.0283">&#171;extend&#187;</text></g><!--reverse link MOK17 to MOK8--><g id="link_MOK17_MOK8"><path d="M834.42,169.84 C897.22,171.61 971.29,173.69 1032.9,175.42 " fill="none" id="MOK17-backto-MOK8" style="stroke:#181818;stroke-width:1.0;stroke-dasharray:7.0,7.0;"/><polygon fill="#181818" points="829.15,169.69,838.0321,173.9454,834.148,169.8328,838.2606,165.9487,829.15,169.69" style="stroke:#181818;stroke-width:1.0;"/><text fill="#000000" font-family="sans-serif" font-size="13" lengthAdjust="spacing" textLength="53" x="861" y="167.0283">&#171;extend&#187;</text></g><!--reverse link MOK16 to MOK7--><g id="link_MOK16_MOK7"><path d="M426.85,286.6 C494.36,277.17 572.5,266.25 627.14,258.62 " fill="none" id="MOK16-backto-MOK7" style="stroke:#181818;stroke-width:1.0;stroke-dasharray:7.0,7.0;"/><polygon fill="#181818" points="421.59,287.34,431.0609,290.0423,426.5409,286.6409,429.9423,282.1209,421.59,287.34" style="stroke:#181818;stroke-width:1.0;"/><text fill="#000000" font-family="sans-serif" font-size="13" lengthAdjust="spacing" textLength="53" x="479" y="269.0283">&#171;extend&#187;</text></g><!--reverse link MOK16 to MOK5--><g id="link_MOK16_MOK5"><path d="M450.12,311.96 C508.31,314.1 571.25,316.41 618.89,318.16 " fill="none" id="MOK16-backto-MOK5" style="stroke:#181818;stroke-width:1.0;stroke-dasharray:7.0,7.0;"/><polygon fill="#181818" points="444.87,311.77,453.7153,316.1013,449.8666,311.9556,454.0123,308.1068,444.87,311.77" style="stroke:#181818;stroke-width:1.0;"/><text fill="#000000" font-family="sans-serif" font-size="13" lengthAdjust="spacing" textLength="53" x="479" y="309.0283">&#171;extend&#187;</text></g><!--SRC=[VPJFRk8m4CRlUOfHJ-s1B84af152kmje9Ge2RV-ir9lh630uTkGuq6IrbqfzYAgl0-zL9mZIP2kaAChu-yqtCxOS0016vWgK04aNImK1bGGhAhYX9IXU22iXuH79RFSQO0GeXgnKSnpn1ICmcTx0ts8jYGb6CO4B6nem4FkNtIlE2AVaspGe0uX4HaMOG21YjNkByWzO2wuGRFSlQF-EAQQ4eOkyeZQtgzwkzduCAU88bYZM2KVEgN8TpGs35AyG18YdU7daEbNEgtFdUl6gkTTvB-Y9YRNOednE4PJ1EP_hgezbbKEjTczPkZwHLgk6jZNw9sLYSQXouchRP3a5jt_VKg9OiU-CnYejkZebrVRCilzBedmkP8ZmYe8ePebv6kOc-5DjjsRZdhUfPUS7ygzmoA3H-3JqARIheLCD3zKB0KopT_3qeTkb7BCa8BtU2UX0rpIB0yXrygm83xwIxVEozwNi7kNEUTcfoEML-guNaf0PnemXhkudOzWG6Uix2PRPQhRQfdjvbn3u4KcmFFtupRRlUD0Vtjv1hbyPbxzcOuX58Z7HDpfMaZub-QM-CaPeW-1tmXKDYG_JYF3HuEQu04E-eLBma71bZ1uc9U3QZPzKmIsHkXLuc1W3CaS9Kpe3Yu3oXG_zo6evJMEiVmO9McZpY1bzeOrbwiDi_040]--></g></svg>